# xmcd CD database file
#
# Track frame offsets:
#	150
#	15205
#	31420
#	50057
#	79480
#	106110
#	135627
#
# Disc length: 1985 seconds
#
# Revision: 0
# Processed by: cddbd v1.5.1PL0 Copyright (c) Steve Scherf et al.
# Submitted via: CDex 1.51
#
DISCID=5007bf07
DTITLE=mash - 水の味
DYEAR=2002
DGENRE=Rock
TTITLE0=ドライブ
TTITLE1=水の味
TTITLE2=光と影
TTITLE3=スクリーミング
TTITLE4=きらめき
TTITLE5=見知らぬ人
TTITLE6=ガーデン
EXTD=YEAR: 2002
EXTT0=
EXTT1=
EXTT2=
EXTT3=
EXTT4=
EXTT5=
EXTT6=
PLAYORDER=
